{"asset":{"version":"2.0","generator":"Ride Speed original procedural vehicle mesh","copyright":"CC0-1.0"},"scene":0,"scenes":[{"nodes":[0]}],"nodes":[{"mesh":0}],"meshes":[{"primitives":[{"attributes":{"POSITION":0,"COLOR_0":1,"NORMAL":2},"material":0,"mode":4}]}],"materials":[{"name":"matte-original","doubleSided":true,"pbrMetallicRoughness":{"metallicFactor":0.15,"roughnessFactor":0.55}}],"buffers":[{"uri":"data:application/octet-stream;base64,","byteLength":27216}],"bufferViews":[{"buffer":0,"byteOffset":0,"byteLength":9072,"target":34962},{"buffer":0,"byteOffset":9072,"byteLength":9072,"target":34962},{"buffer":0,"byteOffset":18144,"byteLength":9072,"target":34962}],"accessors":[{"bufferView":0,"componentType":5126,"count":756,"type":"VEC3","min":[-1.33,0,-0.425],"max":[1.35,1.535,0.425]},{"bufferView":1,"componentType":5126,"count":756,"type":"VEC3"},{"bufferView":2,"componentType":5126,"count":756,"type":"VEC3"}]}
